<?xml version="1.0" standalone="no"?>
<!DOCTYPE svg PUBLIC "-//W3C//DTD SVG 20010904//EN"
 "http://www.w3.org/TR/2001/REC-SVG-20010904/DTD/svg10.dtd">
<svg version="1.0" xmlns="http://www.w3.org/2000/svg"
 width="219.000000pt" height="230.000000pt" viewBox="0 0 219.000000 230.000000"
 preserveAspectRatio="xMidYMid meet">

<g transform="translate(0.000000,230.000000) scale(0.100000,-0.100000)"
fill="#000000" stroke="none">
<path d="M880 2171 c-184 -40 -352 -129 -495 -263 -136 -127 -225 -265 -284
-443 -57 -173 -65 -383 -20 -566 60 -248 250 -504 473 -638 98 -59 176 -93
287 -123 73 -20 107 -23 254 -23 145 1 183 4 255 24 100 27 243 92 329 150
204 139 364 365 427 607 23 85 27 120 27 249 1 126 -3 164 -22 240 -82 317
-279 561 -565 700 -159 78 -237 96 -426 101 -125 3 -172 0 -240 -15z m465
-101 c44 -12 98 -29 120 -39 l40 -17 -98 -47 c-54 -25 -126 -63 -159 -83 l-61
-37 -32 17 c-18 10 -51 37 -73 59 -48 50 -114 156 -105 170 11 18 279 1 368
-23z m-431 -67 c27 -52 62 -99 112 -148 l72 -72 -46 -35 -45 -35 -86 35 c-109
44 -286 89 -385 98 -42 4 -76 11 -76 15 0 15 120 99 195 137 65 32 186 80 210
81 6 1 28 -34 49 -76z m762 -96 c69 -51 166 -152 212 -222 48 -73 48 -73 -59
-27 -26 11 -127 39 -225 61 -226 52 -304 72 -309 81 -9 14 272 148 311 150 7
0 38 -19 70 -43z m-1096 -158 c92 -14 182 -37 277 -71 l82 -30 -72 -81 c-40
-45 -80 -93 -89 -106 l-16 -23 -58 28 c-47 23 -69 28 -133 27 -42 0 -96 -6
-121 -12 -59 -17 -168 -65 -232 -102 -28 -17 -52 -28 -54 -26 -3 2 7 42 22 88
28 92 86 206 141 282 l36 49 76 -7 c42 -3 105 -11 141 -16z m707 -43 c39 -13
156 -43 260 -66 243 -54 319 -85 400 -164 84 -83 98 -129 97 -326 -1 -123 -5
-160 -28 -245 -26 -99 -110 -285 -132 -292 -7 -2 -17 18 -24 49 -20 85 -74
226 -125 328 -126 251 -311 462 -538 613 -47 31 -88 61 -91 66 -8 12 64 61 90
61 11 0 52 -11 91 -24z m-185 -145 c222 -130 428 -356 552 -606 56 -114 115
-283 136 -392 l13 -63 -44 -40 c-112 -102 -280 -196 -413 -230 -63 -16 -75
-16 -106 -3 -68 28 -122 98 -160 209 -11 32 -47 192 -80 354 -65 325 -86 402
-136 502 -19 37 -34 74 -34 81 0 24 176 227 197 227 5 0 38 -18 75 -39z m-458
-167 c26 -9 50 -22 53 -30 2 -7 -14 -44 -36 -82 -110 -188 -190 -442 -206
-652 -3 -41 -8 -98 -11 -127 l-5 -52 -48 53 c-154 170 -235 366 -247 599 l-7
122 108 64 c118 70 247 121 311 121 22 0 62 -7 88 -16z m150 -161 c35 -70 59
-165 120 -473 68 -342 103 -447 173 -530 l28 -33 -100 6 c-55 4 -134 16 -175
27 -81 23 -222 86 -271 121 l-32 22 6 166 c6 182 28 300 87 466 40 110 121
275 136 275 2 0 14 -21 28 -47z"/>
</g>
</svg>
